<?xml version="1.0" encoding="utf-8"?>
<!-- Generator: Adobe Illustrator 26.3.1, SVG Export Plug-In . SVG Version: 6.00 Build 0)  -->
<svg version="1.1" id="Layer_1" xmlns="http://www.w3.org/2000/svg" xmlns:xlink="http://www.w3.org/1999/xlink" x="0px" y="0px"
	 viewBox="0 0 329 51.7" style="enable-background:new 0 0 329 51.7;" xml:space="preserve">
<style type="text/css">
	.st0{fill:#705AFF;}
</style>
<g>
	<path class="st0" d="M28.6,43.7c-3.3,2.6-7.5,3.6-12.4,3.6S5.7,46,0,41.7l6.1-10.3C10,34.7,15.5,36,17.3,36s3.1-0.5,3.1-1.8
		s-1.5-1.7-3-2.2c-1.5-0.4-4.9-1.5-6.1-1.9c-5.8-2.3-9.6-5-9.6-12c0-4.6,2.4-8.1,4.9-10.2c2.6-2.1,6.8-3.6,12.3-3.6s11.3,2,15,5
		L28.7,19c-3.2-2.8-7.8-4-10-4s-3.4,0.4-3.4,1.7c0,1.2,1.9,1.6,2.9,1.9s3.5,1,5,1.5c6.3,2.1,10.9,5.3,10.9,12.7
		C34.1,37.2,31.9,41.1,28.6,43.7z"/>
	<path class="st0" d="M76,46.6V30.8c0-3-0.6-4.7-2.7-4.7s-2.7,1.7-2.7,4.7v15.8H56.9V30.8c0-3-0.6-4.7-2.7-4.7
		c-2.1,0-2.7,1.7-2.7,4.7v15.8H37.7v-31h13.7l-0.2,4c1.7-2.4,4.4-4.6,8.4-4.6s7.6,0.9,9.2,5.2c2.3-3.6,5-5.2,9.9-5.2
		c7.6,0,10.9,4.9,10.9,13.1v18.6L76,46.6L76,46.6z"/>
	<path class="st0" d="M113.4,46.6l-0.3-2.7c-1.5,1.5-4,3.5-7.9,3.5c-5.8,0-11.9-2.6-11.9-10.2s7.7-9.4,12.2-9.6l7.2-0.3V27
		c0-1.7-1.4-2.9-5-2.9s-7.6,1.5-9.7,2.7l-3.3-8.6c3-1.4,8.5-3.2,14.9-3.2c10.1,0,16.9,3.6,16.9,14.6v17
		C126.5,46.6,113.4,46.6,113.4,46.6z M110,34.1c-1.5,0.1-3,0.6-3,2.4c0,1.8,1.5,2.4,3,2.4s2.4-0.9,2.7-1.2v-3.8L110,34.1z"/>
	<path class="st0" d="M155.2,28h-0.6c-0.6-0.3-2.1-0.9-4-0.9c-4.4,0-5.5,3.6-5.5,7.3v12.2h-13.7v-31h13.7l-0.2,4
		c2-3.3,4.4-4.6,7.8-4.6c2.1,0,3,0.6,3,0.6L155.2,28z"/>
	<path class="st0" d="M175,25.6v8.5c0,1.8,0.9,2.1,2.4,2.1s3-0.4,3-0.4l0.6,10.5c-1.2,0.3-4.6,1-8.5,1c-8.2,0-11.3-3.8-11.3-11.7
		v-10H157v-10h4.3V8H175v7.6h6.4v10H175z"/>
	<path class="st0" d="M232.8,46.6h-14l-5.7-23.7l-5.6,23.7h-14l-11.9-42H196l5.2,23.4l5.2-23.4H220l5.2,23.4l5.2-23.4h14.3
		L232.8,46.6z"/>
	<path class="st0" d="M253.8,34.4c4.4,0,7.3,2.6,7.3,6.5c0,4-2.9,6.5-7.3,6.5c-4.4,0-7.3-2.6-7.3-6.5
		C246.5,36.9,249.4,34.4,253.8,34.4z M260.6,4.6v28.6H247V4.6H260.6z"/>
	<path class="st0" d="M288.4,44.6c-2.4,1.8-5.7,2.7-10,2.7c-4.4,0-9.7-0.8-14.4-4.3l4.6-8c4.3,2.8,9.2,3.3,10.1,3.3s1.8-0.1,1.8-1
		c0-1.1-3.9-1.9-5.2-2.3c-5.2-1.5-9.4-3.1-9.4-9.7c0-6.4,5.7-10.4,13.1-10.4s11.4,2.5,13.1,3.6l-3.7,7.7c-3.1-1.9-6.6-2.9-8.9-2.9
		c-1.2,0-1.7,0.4-1.7,1c0,0.7,1.5,1.2,3.3,1.6c5.8,1.8,11.4,3.5,11.4,10.9C292.5,40.2,290.8,42.8,288.4,44.6z"/>
	<path class="st0" d="M328.8,34.3h-20.4c0.5,2.9,3.5,3.5,6,3.5c2.4,0,5.8-0.6,8.5-2.4l5.2,6.7c-1.5,1.2-5.8,5.3-15.7,5.3
		c-9.9,0-17.5-5.5-17.5-16.2c0-10.6,7.9-16.2,17.6-16.2s16.4,6.1,16.4,15.5C329,32.3,328.8,34.3,328.8,34.3z M312.4,23.5
		c-2.3,0-3.8,1.5-4,3.6h7.9C316.2,25,314.7,23.5,312.4,23.5z"/>
</g>
</svg>
