<svg xmlns="http://www.w3.org/2000/svg" viewBox="0 0 328.98 86.16"><defs><style>.cls-1{fill:#705aff;}</style></defs><g id="Layer_2" data-name="Layer 2"><path class="cls-1" d="M120.11,51.11c0,1.44,1.2,1.92,2.4,1.92a3,3,0,0,0,2.16-1v-3l-2.16.14C121.36,49.24,120.11,49.67,120.11,51.11Z"/><path class="cls-1" d="M282.21,40.79a3,3,0,0,0-3.12,2.88h6.24A3,3,0,0,0,282.21,40.79Z"/><path class="cls-1" d="M13.19,14.3V71.86H315.8V14.3ZM230.58,28.55h10.8v20h-10.8ZM58.24,56.78c-2.64,2-6,2.83-9.79,2.83a21,21,0,0,1-12.77-4.42L40.48,47a16.62,16.62,0,0,0,8.83,3.6c1.44,0,2.45-.43,2.45-1.39s-1.2-1.34-2.4-1.73-3.84-1.2-4.8-1.53C40,44.15,37,42,37,36.47a10.45,10.45,0,0,1,3.84-8c2-1.68,5.33-2.88,9.74-2.88a19.2,19.2,0,0,1,11.81,4l-4.13,7.68a13.68,13.68,0,0,0-7.87-3.17c-1.73,0-2.69.34-2.69,1.35S49.22,36.71,50,37s2.78.82,3.93,1.2c5,1.68,8.64,4.18,8.64,10A11,11,0,0,1,58.24,56.78ZM106.48,59H95.68V46.55c0-2.4-.48-3.74-2.16-3.74s-2.16,1.34-2.16,3.74V59H80.56V46.55c0-2.4-.48-3.74-2.16-3.74s-2.16,1.34-2.16,3.74V59H65.44V34.55h10.8l-.14,3.12a7.91,7.91,0,0,1,6.62-3.6c3.12,0,6,.72,7.3,4.08,1.82-2.88,4-4.08,7.82-4.08,6,0,8.64,3.84,8.64,10.32Zm28.9,0H125.15l-.24-2.16a8.48,8.48,0,0,1-6.24,2.74c-4.56,0-9.36-2-9.36-8s6-7.39,9.6-7.53l5.67-.24v-.24c0-1.35-1.11-2.31-4-2.31a17.1,17.1,0,0,0-7.68,2.16l-2.64-6.81A29,29,0,0,1,122,34.07c8,0,13.35,2.83,13.35,11.52Zm22.8-14.64h-.48a7.37,7.37,0,0,0-3.12-.72c-3.51,0-4.32,2.83-4.32,5.76V59h-10.8V34.55h10.8l-.15,3.12a6.54,6.54,0,0,1,6.15-3.6,4.62,4.62,0,0,1,2.4.48Zm20.64-1.92h-5v6.72c0,1.44.72,1.68,1.92,1.68a10.39,10.39,0,0,0,2.4-.33l.48,8.25a29,29,0,0,1-6.72.82c-6.44,0-8.89-3-8.89-9.22V42.47h-3.36V34.55H163v-6h10.81v6h5ZM219.38,59h-11l-4.47-18.72L199.46,59h-11l-9.37-33.12h11.28l4.09,18.48,4.08-18.48h10.8l4.08,18.48,4.08-18.48h11.28Zm16.63.63c-3.51,0-5.76-2-5.76-5.14s2.25-5.13,5.76-5.13,5.76,2,5.76,5.13S239.46,59.66,236,59.66ZM263.3,57.5c-1.92,1.44-4.47,2.16-7.92,2.16a18.3,18.3,0,0,1-11.33-3.41l3.64-6.34a17.22,17.22,0,0,0,8,2.6c.67,0,1.4-.1,1.4-.77,0-.87-3.08-1.54-4.09-1.83-4.12-1.2-7.44-2.44-7.44-7.68,0-5.09,4.47-8.21,10.33-8.21a17.82,17.82,0,0,1,10.36,2.84l-2.92,6a14.66,14.66,0,0,0-7.06-2.3c-1,0-1.34.29-1.34.82s1.2.91,2.64,1.29c4.6,1.39,9,2.74,9,8.64A7.53,7.53,0,0,1,263.3,57.5Zm31.87-8.16H279.09c.38,2.25,2.78,2.73,4.7,2.73a12.54,12.54,0,0,0,6.72-1.92l4.08,5.28c-1.2,1-4.56,4.18-12.38,4.18s-13.78-4.37-13.78-12.77,6.24-12.77,13.92-12.77,13,4.8,13,12.24C295.31,47.75,295.17,49.34,295.17,49.34Z"/></g></svg>